<?xml version="1.0" encoding="UTF-8" standalone="no"?>
<!DOCTYPE svg PUBLIC "-//W3C//DTD SVG 1.1//EN"
 "http://www.w3.org/Graphics/SVG/1.1/DTD/svg11.dtd">
<!-- Generated by graphviz version 2.38.0 (20140413.2041)
 -->
<!-- Title: G Pages: 1 -->
<svg width="203pt" height="188pt"
 viewBox="0.00 0.00 202.94 188.00" xmlns="http://www.w3.org/2000/svg" xmlns:xlink="http://www.w3.org/1999/xlink">
<g id="graph0" class="graph" transform="scale(1 1) rotate(0) translate(4 184)">
<title>G</title>
<polygon fill="white" stroke="none" points="-4,4 -4,-184 198.937,-184 198.937,4 -4,4"/>
<!-- A1 -->
<g id="node1" class="node"><title>A1</title>
<ellipse fill="none" stroke="black" cx="122.144" cy="-162" rx="72.5877" ry="18"/>
<text text-anchor="middle" x="122.144" y="-158.3" font-family="Times New Roman,serif" font-size="14.00">A, ExecuteFinish</text>
</g>
<!-- B4 -->
<g id="node2" class="node"><title>B4</title>
<ellipse fill="none" stroke="black" cx="72.1436" cy="-90" rx="72.2875" ry="18"/>
<text text-anchor="middle" x="72.1436" y="-86.3" font-family="Times New Roman,serif" font-size="14.00">B, ExecuteFinish</text>
</g>
<!-- A1&#45;&gt;B4 -->
<g id="edge1" class="edge"><title>A1&#45;&gt;B4</title>
<path fill="none" stroke="black" d="M110.04,-144.055C104.021,-135.629 96.6292,-125.28 89.9767,-115.966"/>
<polygon fill="black" stroke="black" points="92.7962,-113.892 84.1357,-107.789 87.1001,-117.961 92.7962,-113.892"/>
</g>
<!-- C7 -->
<g id="node3" class="node"><title>C7</title>
<ellipse fill="none" stroke="black" cx="122.144" cy="-18" rx="72.5877" ry="18"/>
<text text-anchor="middle" x="122.144" y="-14.3" font-family="Times New Roman,serif" font-size="14.00">C, ExecuteFinish</text>
</g>
<!-- A1&#45;&gt;C7 -->
<g id="edge2" class="edge"><title>A1&#45;&gt;C7</title>
<path fill="none" stroke="black" d="M135.289,-143.908C142.066,-134.006 149.631,-120.964 153.144,-108 157.328,-92.5569 157.328,-87.4431 153.144,-72 150.564,-62.4797 145.799,-52.9174 140.766,-44.5872"/>
<polygon fill="black" stroke="black" points="143.649,-42.6006 135.289,-36.092 137.766,-46.3933 143.649,-42.6006"/>
</g>
<!-- B4&#45;&gt;C7 -->
<g id="edge3" class="edge"><title>B4&#45;&gt;C7</title>
<path fill="none" stroke="black" d="M84.2472,-72.055C90.266,-63.6287 97.658,-53.2798 104.311,-43.9663"/>
<polygon fill="black" stroke="black" points="107.187,-45.9607 110.151,-35.789 101.491,-41.892 107.187,-45.9607"/>
</g>
</g>
</svg>
