<?xml version="1.0" encoding="UTF-8" standalone="no"?>
<!DOCTYPE svg PUBLIC "-//W3C//DTD SVG 1.1//EN"
 "http://www.w3.org/Graphics/SVG/1.1/DTD/svg11.dtd">
<!-- Generated by graphviz version 2.38.0 (20140413.2041)
 -->
<!-- Title: G Pages: 1 -->
<svg width="428pt" height="620pt"
 viewBox="0.00 0.00 428.18 620.00" xmlns="http://www.w3.org/2000/svg" xmlns:xlink="http://www.w3.org/1999/xlink">
<g id="graph0" class="graph" transform="scale(1 1) rotate(0) translate(4 616)">
<title>G</title>
<polygon fill="white" stroke="none" points="-4,4 -4,-616 424.185,-616 424.185,4 -4,4"/>
<!-- A1 -->
<g id="node1" class="node"><title>A1</title>
<ellipse fill="none" stroke="black" cx="160.741" cy="-594" rx="67.6881" ry="18"/>
<text text-anchor="middle" x="160.741" y="-590.3" font-family="Times New Roman,serif" font-size="14.00">A, ExecuteStart</text>
</g>
<!-- A2 -->
<g id="node2" class="node"><title>A2</title>
<ellipse fill="none" stroke="black" cx="160.741" cy="-522" rx="52.7911" ry="18"/>
<text text-anchor="middle" x="160.741" y="-518.3" font-family="Times New Roman,serif" font-size="14.00">A, Includes</text>
</g>
<!-- A1&#45;&gt;A2 -->
<g id="edge1" class="edge"><title>A1&#45;&gt;A2</title>
<path fill="none" stroke="black" d="M160.741,-575.697C160.741,-567.983 160.741,-558.712 160.741,-550.112"/>
<polygon fill="black" stroke="black" points="164.241,-550.104 160.741,-540.104 157.241,-550.104 164.241,-550.104"/>
</g>
<!-- A3 -->
<g id="node3" class="node"><title>A3</title>
<ellipse fill="none" stroke="black" cx="82.7411" cy="-378" rx="72.5877" ry="18"/>
<text text-anchor="middle" x="82.7411" y="-374.3" font-family="Times New Roman,serif" font-size="14.00">A, ExecuteFinish</text>
</g>
<!-- A2&#45;&gt;A3 -->
<g id="edge2" class="edge"><title>A2&#45;&gt;A3</title>
<path fill="none" stroke="black" d="M151.487,-504.153C138.072,-479.732 113.098,-434.265 97.2289,-405.375"/>
<polygon fill="black" stroke="black" points="100.108,-403.348 92.2262,-396.268 93.973,-406.718 100.108,-403.348"/>
</g>
<!-- B3 -->
<g id="node4" class="node"><title>B3</title>
<ellipse fill="none" stroke="black" cx="223.741" cy="-450" rx="63.8893" ry="18"/>
<text text-anchor="middle" x="223.741" y="-446.3" font-family="Times New Roman,serif" font-size="14.00">B, IncludedBy</text>
</g>
<!-- A2&#45;&gt;B3 -->
<g id="edge3" class="edge"><title>A2&#45;&gt;B3</title>
<path fill="none" stroke="black" d="M175.671,-504.411C183.403,-495.82 192.998,-485.159 201.576,-475.627"/>
<polygon fill="black" stroke="black" points="204.392,-477.731 208.48,-467.956 199.189,-473.048 204.392,-477.731"/>
</g>
<!-- A9 -->
<g id="node5" class="node"><title>A9</title>
<ellipse fill="none" stroke="black" cx="100.741" cy="-18" rx="100.983" ry="18"/>
<text text-anchor="middle" x="100.741" y="-14.3" font-family="Times New Roman,serif" font-size="14.00">A, CheckedConditionBy</text>
</g>
<!-- A3&#45;&gt;A9 -->
<g id="edge4" class="edge"><title>A3&#45;&gt;A9</title>
<path fill="none" stroke="black" d="M82.7411,-359.951C82.7411,-333.292 82.7411,-280.115 82.7411,-235 82.7411,-235 82.7411,-235 82.7411,-161 82.7411,-120.896 89.8944,-74.9238 95.1821,-46.4193"/>
<polygon fill="black" stroke="black" points="98.6577,-46.8781 97.0985,-36.3987 91.7823,-45.5632 98.6577,-46.8781"/>
</g>
<!-- B4 -->
<g id="node6" class="node"><title>B4</title>
<ellipse fill="none" stroke="black" cx="240.741" cy="-378" rx="67.6881" ry="18"/>
<text text-anchor="middle" x="240.741" y="-374.3" font-family="Times New Roman,serif" font-size="14.00">B, ExecuteStart</text>
</g>
<!-- B3&#45;&gt;B4 -->
<g id="edge5" class="edge"><title>B3&#45;&gt;B4</title>
<path fill="none" stroke="black" d="M227.943,-431.697C229.837,-423.898 232.118,-414.509 234.225,-405.829"/>
<polygon fill="black" stroke="black" points="237.628,-406.648 236.587,-396.104 230.826,-404.996 237.628,-406.648"/>
</g>
<!-- B5 -->
<g id="node7" class="node"><title>B5</title>
<ellipse fill="none" stroke="black" cx="240.741" cy="-306" rx="66.0889" ry="18"/>
<text text-anchor="middle" x="240.741" y="-302.3" font-family="Times New Roman,serif" font-size="14.00">B, SetsPending</text>
</g>
<!-- B4&#45;&gt;B5 -->
<g id="edge6" class="edge"><title>B4&#45;&gt;B5</title>
<path fill="none" stroke="black" d="M240.741,-359.697C240.741,-351.983 240.741,-342.712 240.741,-334.112"/>
<polygon fill="black" stroke="black" points="244.241,-334.104 240.741,-324.104 237.241,-334.104 244.241,-334.104"/>
</g>
<!-- B6 -->
<g id="node8" class="node"><title>B6</title>
<ellipse fill="none" stroke="black" cx="182.741" cy="-234" rx="72.2875" ry="18"/>
<text text-anchor="middle" x="182.741" y="-230.3" font-family="Times New Roman,serif" font-size="14.00">B, ExecuteFinish</text>
</g>
<!-- B5&#45;&gt;B6 -->
<g id="edge7" class="edge"><title>B5&#45;&gt;B6</title>
<path fill="none" stroke="black" d="M226.701,-288.055C219.648,-279.543 210.969,-269.068 203.191,-259.681"/>
<polygon fill="black" stroke="black" points="205.727,-257.256 196.652,-251.789 200.337,-261.722 205.727,-257.256"/>
</g>
<!-- C6 -->
<g id="node9" class="node"><title>C6</title>
<ellipse fill="none" stroke="black" cx="346.741" cy="-234" rx="73.387" ry="18"/>
<text text-anchor="middle" x="346.741" y="-230.3" font-family="Times New Roman,serif" font-size="14.00">C, SetPendingBy</text>
</g>
<!-- B5&#45;&gt;C6 -->
<g id="edge8" class="edge"><title>B5&#45;&gt;C6</title>
<path fill="none" stroke="black" d="M264.794,-289.116C279.328,-279.518 298.051,-267.154 313.931,-256.667"/>
<polygon fill="black" stroke="black" points="316,-259.495 322.416,-251.064 312.143,-253.654 316,-259.495"/>
</g>
<!-- C7 -->
<g id="node10" class="node"><title>C7</title>
<ellipse fill="none" stroke="black" cx="337.741" cy="-162" rx="67.6881" ry="18"/>
<text text-anchor="middle" x="337.741" y="-158.3" font-family="Times New Roman,serif" font-size="14.00">C, ExecuteStart</text>
</g>
<!-- C6&#45;&gt;C7 -->
<g id="edge9" class="edge"><title>C6&#45;&gt;C7</title>
<path fill="none" stroke="black" d="M344.516,-215.697C343.525,-207.983 342.333,-198.712 341.227,-190.112"/>
<polygon fill="black" stroke="black" points="344.687,-189.576 339.94,-180.104 337.744,-190.469 344.687,-189.576"/>
</g>
<!-- C8 -->
<g id="node11" class="node"><title>C8</title>
<ellipse fill="none" stroke="black" cx="301.741" cy="-90" rx="85.2851" ry="18"/>
<text text-anchor="middle" x="301.741" y="-86.3" font-family="Times New Roman,serif" font-size="14.00">C, ChecksCondition</text>
</g>
<!-- C7&#45;&gt;C8 -->
<g id="edge10" class="edge"><title>C7&#45;&gt;C8</title>
<path fill="none" stroke="black" d="M329.026,-144.055C324.887,-136.007 319.846,-126.205 315.229,-117.226"/>
<polygon fill="black" stroke="black" points="318.312,-115.567 310.626,-108.275 312.087,-118.769 318.312,-115.567"/>
</g>
<!-- C8&#45;&gt;A9 -->
<g id="edge11" class="edge"><title>C8&#45;&gt;A9</title>
<path fill="none" stroke="black" d="M259.605,-74.3257C228.906,-63.6346 187.089,-49.0713 154.063,-37.5699"/>
<polygon fill="black" stroke="black" points="155.154,-34.2437 144.559,-34.2601 152.852,-40.8543 155.154,-34.2437"/>
</g>
<!-- C9 -->
<g id="node12" class="node"><title>C9</title>
<ellipse fill="none" stroke="black" cx="301.741" cy="-18" rx="72.5877" ry="18"/>
<text text-anchor="middle" x="301.741" y="-14.3" font-family="Times New Roman,serif" font-size="14.00">C, ExecuteFinish</text>
</g>
<!-- C8&#45;&gt;C9 -->
<g id="edge12" class="edge"><title>C8&#45;&gt;C9</title>
<path fill="none" stroke="black" d="M301.741,-71.6966C301.741,-63.9827 301.741,-54.7125 301.741,-46.1124"/>
<polygon fill="black" stroke="black" points="305.241,-46.1043 301.741,-36.1043 298.241,-46.1044 305.241,-46.1043"/>
</g>
</g>
</svg>
