<?xml version="1.0" encoding="UTF-8" standalone="no"?>
<!DOCTYPE svg PUBLIC "-//W3C//DTD SVG 1.1//EN"
 "http://www.w3.org/Graphics/SVG/1.1/DTD/svg11.dtd">
<!-- Generated by graphviz version 2.38.0 (20140413.2041)
 -->
<!-- Title: G Pages: 1 -->
<svg width="554pt" height="260pt"
 viewBox="0.00 0.00 553.88 260.00" xmlns="http://www.w3.org/2000/svg" xmlns:xlink="http://www.w3.org/1999/xlink">
<g id="graph0" class="graph" transform="scale(1 1) rotate(0) translate(4 256)">
<title>G</title>
<polygon fill="white" stroke="none" points="-4,4 -4,-256 549.884,-256 549.884,4 -4,4"/>
<!-- A1 -->
<g id="node1" class="node"><title>A1</title>
<ellipse fill="none" stroke="black" cx="100.741" cy="-234" rx="67.6881" ry="18"/>
<text text-anchor="middle" x="100.741" y="-230.3" font-family="Times New Roman,serif" font-size="14.00">A, ExecuteStart</text>
</g>
<!-- A2 -->
<g id="node2" class="node"><title>A2</title>
<ellipse fill="none" stroke="black" cx="100.741" cy="-162" rx="52.7911" ry="18"/>
<text text-anchor="middle" x="100.741" y="-158.3" font-family="Times New Roman,serif" font-size="14.00">A, Includes</text>
</g>
<!-- A1&#45;&gt;A2 -->
<g id="edge1" class="edge"><title>A1&#45;&gt;A2</title>
<path fill="none" stroke="black" d="M100.741,-215.697C100.741,-207.983 100.741,-198.712 100.741,-190.112"/>
<polygon fill="black" stroke="black" points="104.241,-190.104 100.741,-180.104 97.2412,-190.104 104.241,-190.104"/>
</g>
<!-- A3 -->
<g id="node3" class="node"><title>A3</title>
<ellipse fill="none" stroke="black" cx="100.741" cy="-90" rx="72.5877" ry="18"/>
<text text-anchor="middle" x="100.741" y="-86.3" font-family="Times New Roman,serif" font-size="14.00">A, ExecuteFinish</text>
</g>
<!-- A2&#45;&gt;A3 -->
<g id="edge2" class="edge"><title>A2&#45;&gt;A3</title>
<path fill="none" stroke="black" d="M100.741,-143.697C100.741,-135.983 100.741,-126.712 100.741,-118.112"/>
<polygon fill="black" stroke="black" points="104.241,-118.104 100.741,-108.104 97.2412,-118.104 104.241,-118.104"/>
</g>
<!-- A9 -->
<g id="node4" class="node"><title>A9</title>
<ellipse fill="none" stroke="black" cx="100.741" cy="-18" rx="100.983" ry="18"/>
<text text-anchor="middle" x="100.741" y="-14.3" font-family="Times New Roman,serif" font-size="14.00">A, CheckedConditionBy</text>
</g>
<!-- A3&#45;&gt;A9 -->
<g id="edge3" class="edge"><title>A3&#45;&gt;A9</title>
<path fill="none" stroke="black" d="M100.741,-71.6966C100.741,-63.9827 100.741,-54.7125 100.741,-46.1124"/>
<polygon fill="black" stroke="black" points="104.241,-46.1043 100.741,-36.1043 97.2412,-46.1044 104.241,-46.1043"/>
</g>
<!-- B3 -->
<g id="node5" class="node"><title>B3</title>
<ellipse fill="none" stroke="black" cx="291.741" cy="-234" rx="63.8893" ry="18"/>
<text text-anchor="middle" x="291.741" y="-230.3" font-family="Times New Roman,serif" font-size="14.00">B, IncludedBy</text>
</g>
<!-- B4 -->
<g id="node6" class="node"><title>B4</title>
<ellipse fill="none" stroke="black" cx="291.741" cy="-162" rx="67.6881" ry="18"/>
<text text-anchor="middle" x="291.741" y="-158.3" font-family="Times New Roman,serif" font-size="14.00">B, ExecuteStart</text>
</g>
<!-- B3&#45;&gt;B4 -->
<g id="edge4" class="edge"><title>B3&#45;&gt;B4</title>
<path fill="none" stroke="black" d="M291.741,-215.697C291.741,-207.983 291.741,-198.712 291.741,-190.112"/>
<polygon fill="black" stroke="black" points="295.241,-190.104 291.741,-180.104 288.241,-190.104 295.241,-190.104"/>
</g>
<!-- B5 -->
<g id="node7" class="node"><title>B5</title>
<ellipse fill="none" stroke="black" cx="291.741" cy="-90" rx="66.0889" ry="18"/>
<text text-anchor="middle" x="291.741" y="-86.3" font-family="Times New Roman,serif" font-size="14.00">B, SetsPending</text>
</g>
<!-- B4&#45;&gt;B5 -->
<g id="edge5" class="edge"><title>B4&#45;&gt;B5</title>
<path fill="none" stroke="black" d="M291.741,-143.697C291.741,-135.983 291.741,-126.712 291.741,-118.112"/>
<polygon fill="black" stroke="black" points="295.241,-118.104 291.741,-108.104 288.241,-118.104 295.241,-118.104"/>
</g>
<!-- B6 -->
<g id="node8" class="node"><title>B6</title>
<ellipse fill="none" stroke="black" cx="291.741" cy="-18" rx="72.2875" ry="18"/>
<text text-anchor="middle" x="291.741" y="-14.3" font-family="Times New Roman,serif" font-size="14.00">B, ExecuteFinish</text>
</g>
<!-- B5&#45;&gt;B6 -->
<g id="edge6" class="edge"><title>B5&#45;&gt;B6</title>
<path fill="none" stroke="black" d="M291.741,-71.6966C291.741,-63.9827 291.741,-54.7125 291.741,-46.1124"/>
<polygon fill="black" stroke="black" points="295.241,-46.1043 291.741,-36.1043 288.241,-46.1044 295.241,-46.1043"/>
</g>
<!-- C6 -->
<g id="node9" class="node"><title>C6</title>
<ellipse fill="none" stroke="black" cx="460.741" cy="-234" rx="73.387" ry="18"/>
<text text-anchor="middle" x="460.741" y="-230.3" font-family="Times New Roman,serif" font-size="14.00">C, SetPendingBy</text>
</g>
<!-- C7 -->
<g id="node10" class="node"><title>C7</title>
<ellipse fill="none" stroke="black" cx="460.741" cy="-162" rx="67.6881" ry="18"/>
<text text-anchor="middle" x="460.741" y="-158.3" font-family="Times New Roman,serif" font-size="14.00">C, ExecuteStart</text>
</g>
<!-- C6&#45;&gt;C7 -->
<g id="edge7" class="edge"><title>C6&#45;&gt;C7</title>
<path fill="none" stroke="black" d="M460.741,-215.697C460.741,-207.983 460.741,-198.712 460.741,-190.112"/>
<polygon fill="black" stroke="black" points="464.241,-190.104 460.741,-180.104 457.241,-190.104 464.241,-190.104"/>
</g>
<!-- C8 -->
<g id="node11" class="node"><title>C8</title>
<ellipse fill="none" stroke="black" cx="460.741" cy="-90" rx="85.2851" ry="18"/>
<text text-anchor="middle" x="460.741" y="-86.3" font-family="Times New Roman,serif" font-size="14.00">C, ChecksCondition</text>
</g>
<!-- C7&#45;&gt;C8 -->
<g id="edge8" class="edge"><title>C7&#45;&gt;C8</title>
<path fill="none" stroke="black" d="M460.741,-143.697C460.741,-135.983 460.741,-126.712 460.741,-118.112"/>
<polygon fill="black" stroke="black" points="464.241,-118.104 460.741,-108.104 457.241,-118.104 464.241,-118.104"/>
</g>
<!-- C9 -->
<g id="node12" class="node"><title>C9</title>
<ellipse fill="none" stroke="black" cx="460.741" cy="-18" rx="72.5877" ry="18"/>
<text text-anchor="middle" x="460.741" y="-14.3" font-family="Times New Roman,serif" font-size="14.00">C, ExecuteFinish</text>
</g>
<!-- C8&#45;&gt;C9 -->
<g id="edge9" class="edge"><title>C8&#45;&gt;C9</title>
<path fill="none" stroke="black" d="M460.741,-71.6966C460.741,-63.9827 460.741,-54.7125 460.741,-46.1124"/>
<polygon fill="black" stroke="black" points="464.241,-46.1043 460.741,-36.1043 457.241,-46.1044 464.241,-46.1043"/>
</g>
</g>
</svg>
