<?xml version="1.0" encoding="UTF-8" standalone="no"?>
<!DOCTYPE svg PUBLIC "-//W3C//DTD SVG 1.1//EN"
 "http://www.w3.org/Graphics/SVG/1.1/DTD/svg11.dtd">
<!-- Generated by graphviz version 2.38.0 (20140413.2041)
 -->
<!-- Title: G Pages: 1 -->
<svg width="154pt" height="188pt"
 viewBox="0.00 0.00 153.59 188.00" xmlns="http://www.w3.org/2000/svg" xmlns:xlink="http://www.w3.org/1999/xlink">
<g id="graph0" class="graph" transform="scale(1 1) rotate(0) translate(4 184)">
<title>G</title>
<polygon fill="white" stroke="none" points="-4,4 -4,-184 149.587,-184 149.587,4 -4,4"/>
<!-- A1 -->
<g id="node1" class="node"><title>A1</title>
<ellipse fill="none" stroke="black" cx="72.7935" cy="-162" rx="72.5877" ry="18"/>
<text text-anchor="middle" x="72.7935" y="-158.3" font-family="Times New Roman,serif" font-size="14.00">A, ExecuteFinish</text>
</g>
<!-- B4 -->
<g id="node2" class="node"><title>B4</title>
<ellipse fill="none" stroke="black" cx="72.7935" cy="-90" rx="72.2875" ry="18"/>
<text text-anchor="middle" x="72.7935" y="-86.3" font-family="Times New Roman,serif" font-size="14.00">B, ExecuteFinish</text>
</g>
<!-- A1&#45;&gt;B4 -->
<g id="edge1" class="edge"><title>A1&#45;&gt;B4</title>
<path fill="none" stroke="black" d="M72.7935,-143.697C72.7935,-135.983 72.7935,-126.712 72.7935,-118.112"/>
<polygon fill="black" stroke="black" points="76.2936,-118.104 72.7935,-108.104 69.2936,-118.104 76.2936,-118.104"/>
</g>
<!-- C7 -->
<g id="node3" class="node"><title>C7</title>
<ellipse fill="none" stroke="black" cx="72.7935" cy="-18" rx="72.5877" ry="18"/>
<text text-anchor="middle" x="72.7935" y="-14.3" font-family="Times New Roman,serif" font-size="14.00">C, ExecuteFinish</text>
</g>
<!-- B4&#45;&gt;C7 -->
<g id="edge2" class="edge"><title>B4&#45;&gt;C7</title>
<path fill="none" stroke="black" d="M72.7935,-71.6966C72.7935,-63.9827 72.7935,-54.7125 72.7935,-46.1124"/>
<polygon fill="black" stroke="black" points="76.2936,-46.1043 72.7935,-36.1043 69.2936,-46.1044 76.2936,-46.1043"/>
</g>
</g>
</svg>
