<?xml version="1.0" encoding="UTF-8" standalone="no"?>
<!DOCTYPE svg PUBLIC "-//W3C//DTD SVG 1.1//EN"
 "http://www.w3.org/Graphics/SVG/1.1/DTD/svg11.dtd">
<!-- Generated by graphviz version 2.38.0 (20140413.2041)
 -->
<!-- Title: G Pages: 1 -->
<svg width="248pt" height="404pt"
 viewBox="0.00 0.00 248.48 404.00" xmlns="http://www.w3.org/2000/svg" xmlns:xlink="http://www.w3.org/1999/xlink">
<g id="graph0" class="graph" transform="scale(1 1) rotate(0) translate(4 400)">
<title>G</title>
<polygon fill="white" stroke="none" points="-4,4 -4,-400 244.479,-400 244.479,4 -4,4"/>
<!-- 3 -->
<g id="node1" class="node"><title>3</title>
<ellipse fill="red" stroke="black" cx="120.239" cy="-378" rx="115.08" ry="18"/>
<text text-anchor="middle" x="120.239" y="-374.3" font-family="Times New Roman,serif" font-size="14.00">ReadGasmeter, ExecuteStart</text>
</g>
<!-- 4 -->
<g id="node2" class="node"><title>4</title>
<ellipse fill="none" stroke="black" cx="120.239" cy="-306" rx="107.482" ry="18"/>
<text text-anchor="middle" x="120.239" y="-302.3" font-family="Times New Roman,serif" font-size="14.00">ReadGasmeter, LockedBy</text>
</g>
<!-- 3&#45;&gt;4 -->
<g id="edge1" class="edge"><title>3&#45;&gt;4</title>
<path fill="none" stroke="black" d="M120.239,-359.697C120.239,-351.983 120.239,-342.712 120.239,-334.112"/>
<polygon fill="black" stroke="black" points="123.739,-334.104 120.239,-324.104 116.739,-334.104 123.739,-334.104"/>
</g>
<!-- 5 -->
<g id="node3" class="node"><title>5</title>
<ellipse fill="none" stroke="black" cx="120.239" cy="-234" rx="92.0841" ry="18"/>
<text text-anchor="middle" x="120.239" y="-230.3" font-family="Times New Roman,serif" font-size="14.00">ReadGasmeter, Locks</text>
</g>
<!-- 4&#45;&gt;5 -->
<g id="edge2" class="edge"><title>4&#45;&gt;5</title>
<path fill="none" stroke="black" d="M120.239,-287.697C120.239,-279.983 120.239,-270.712 120.239,-262.112"/>
<polygon fill="black" stroke="black" points="123.739,-262.104 120.239,-252.104 116.739,-262.104 123.739,-262.104"/>
</g>
<!-- 6 -->
<g id="node4" class="node"><title>6</title>
<ellipse fill="none" stroke="black" cx="120.239" cy="-162" rx="114.28" ry="18"/>
<text text-anchor="middle" x="120.239" y="-158.3" font-family="Times New Roman,serif" font-size="14.00">ReadGasmeter, UnlockedBy</text>
</g>
<!-- 5&#45;&gt;6 -->
<g id="edge3" class="edge"><title>5&#45;&gt;6</title>
<path fill="none" stroke="black" d="M120.239,-215.697C120.239,-207.983 120.239,-198.712 120.239,-190.112"/>
<polygon fill="black" stroke="black" points="123.739,-190.104 120.239,-180.104 116.739,-190.104 123.739,-190.104"/>
</g>
<!-- 7 -->
<g id="node5" class="node"><title>7</title>
<ellipse fill="none" stroke="black" cx="120.239" cy="-90" rx="99.3824" ry="18"/>
<text text-anchor="middle" x="120.239" y="-86.3" font-family="Times New Roman,serif" font-size="14.00">ReadGasmeter, Unlocks</text>
</g>
<!-- 6&#45;&gt;7 -->
<g id="edge4" class="edge"><title>6&#45;&gt;7</title>
<path fill="none" stroke="black" d="M120.239,-143.697C120.239,-135.983 120.239,-126.712 120.239,-118.112"/>
<polygon fill="black" stroke="black" points="123.739,-118.104 120.239,-108.104 116.739,-118.104 123.739,-118.104"/>
</g>
<!-- 8 -->
<g id="node6" class="node"><title>8</title>
<ellipse fill="green" stroke="black" cx="120.239" cy="-18" rx="120.479" ry="18"/>
<text text-anchor="middle" x="120.239" y="-14.3" font-family="Times New Roman,serif" font-size="14.00">ReadGasmeter, ExecuteFinish</text>
</g>
<!-- 7&#45;&gt;8 -->
<g id="edge5" class="edge"><title>7&#45;&gt;8</title>
<path fill="none" stroke="black" d="M120.239,-71.6966C120.239,-63.9827 120.239,-54.7125 120.239,-46.1124"/>
<polygon fill="black" stroke="black" points="123.739,-46.1043 120.239,-36.1043 116.739,-46.1044 123.739,-46.1043"/>
</g>
</g>
</svg>
